<svg width="30" height="30" viewBox="0 0 30 30" fill="none" xmlns="http://www.w3.org/2000/svg">
<mask id="mask0_562_336" style="mask-type:alpha" maskUnits="userSpaceOnUse" x="0" y="0" width="30" height="30">
<rect width="30" height="30" fill="#D9D9D9"/>
</mask>
<g mask="url(#mask0_562_336)">
<path opacity="0.5" d="M21.7576 7C19.4214 7 17.1943 7.97984 15.6223 9.67325L15.3712 9.95016L15.5786 10.259C15.9607 10.8128 16.2773 11.4093 16.5065 12.0376L16.8341 12.911L17.369 12.1441C18.3624 10.7276 19.9891 9.8756 21.7467 9.8756C24.6616 9.8756 27.0306 12.1867 27.0306 15.0304C27.0306 17.874 24.6616 20.1852 21.7467 20.1852C19.9891 20.1852 18.3624 19.3331 17.369 17.9166C17.0961 17.5226 16.8777 17.0859 16.7249 16.6279C16.5502 16.1167 16.4629 15.5736 16.4629 15.0197C16.4629 13.6458 16.1026 12.2932 15.4148 11.1004C15.3166 10.93 15.2074 10.7596 15.1092 10.6105C14.8799 10.2697 14.6288 9.95016 14.3559 9.6626C12.8057 7.97984 10.5677 7 8.24236 7C3.70087 7 0 10.5998 0 15.0304C0 19.4609 3.68996 23.0608 8.23144 23.0608C10.5677 23.0608 12.8057 22.0809 14.3668 20.3875L14.6179 20.1106L14.4105 19.8018C14.0284 19.2479 13.7227 18.6515 13.4825 18.0231L13.155 17.1498L12.6201 17.9166C11.6376 19.3331 10 20.1852 8.24236 20.1852C5.32751 20.1852 2.95852 17.874 2.95852 15.0304C2.95852 12.1867 5.31659 9.8756 8.24236 9.8756C9.98908 9.8756 11.6266 10.7276 12.6201 12.1441C12.893 12.5382 13.1114 12.9749 13.2642 13.4328C13.4389 13.9441 13.5262 14.4872 13.5262 15.041C13.5262 16.4149 13.8865 17.7675 14.5742 18.9604C14.6725 19.1308 14.7817 19.3012 14.8799 19.4503C15.1092 19.7911 15.3603 20.1106 15.6332 20.3982C17.1943 22.1022 19.4323 23.0714 21.7686 23.0714C26.31 23.0714 30 19.4716 30 15.041C30 10.6105 26.2991 7 21.7576 7Z" fill="white"/>
</g>
</svg>
