<svg width="30" height="30" viewBox="0 0 30 30" fill="none" xmlns="http://www.w3.org/2000/svg">
<g opacity="0.5">
<path d="M14.9972 11.3552C14.0311 11.3573 13.1052 11.742 12.4221 12.4251C11.739 13.1082 11.3543 14.0341 11.3522 15.0002C11.3543 15.9663 11.739 16.8921 12.4221 17.5753C13.1052 18.2584 14.0311 18.6431 14.9972 18.6452C15.9633 18.6431 16.8891 18.2584 17.5723 17.5753C18.2554 16.8921 18.6401 15.9663 18.6422 15.0002C18.6401 14.0341 18.2554 13.1082 17.5723 12.4251C16.8891 11.742 15.9633 11.3573 14.9972 11.3552ZM25.9292 15.0002C25.9292 13.4902 25.9432 11.9952 25.8592 10.4882C25.7732 8.73819 25.3742 7.18519 24.0942 5.90619C22.8122 4.62319 21.2622 4.22619 19.5122 4.14219C18.0022 4.05719 16.5062 4.07119 15.0002 4.07119C13.4902 4.07119 11.9952 4.05719 10.4882 4.14119C8.73819 4.22719 7.18519 4.62619 5.90519 5.90519C4.62319 7.18819 4.22619 8.73819 4.14219 10.4882C4.05719 11.9982 4.07119 13.4932 4.07119 15.0002C4.07119 16.5072 4.05719 18.0052 4.14119 19.5122C4.22619 21.2622 4.62619 22.8152 5.90519 24.0952C7.18819 25.3772 8.73819 25.7732 10.4882 25.8582C11.9982 25.9432 13.4932 25.9292 15.0002 25.9292C16.5102 25.9292 18.0052 25.9432 19.5122 25.8592C21.2622 25.7732 22.8152 25.3742 24.0942 24.0952C25.3772 22.8122 25.7742 21.2622 25.8582 19.5122C25.9462 18.0052 25.9292 16.5092 25.9292 15.0002ZM14.9972 20.6082C14.2604 20.6092 13.5307 20.4649 12.8499 20.1834C12.169 19.902 11.5503 19.489 11.0294 18.968C10.5084 18.447 10.0954 17.8284 9.81393 17.1475C9.53247 16.4667 9.38813 15.7369 9.38919 15.0002C9.38813 14.2634 9.53247 13.5337 9.81393 12.8529C10.0954 12.172 10.5084 11.5533 11.0294 11.0324C11.5503 10.5114 12.169 10.0984 12.8499 9.81693C13.5307 9.53547 14.2604 9.39113 14.9972 9.39219C15.7339 9.39113 16.4637 9.53547 17.1445 9.81693C17.8254 10.0984 18.444 10.5114 18.965 11.0324C19.486 11.5533 19.899 12.172 20.1804 12.8529C20.4619 13.5337 20.6062 14.2634 20.6052 15.0002C20.6062 15.7369 20.4619 16.4667 20.1804 17.1475C19.899 17.8284 19.486 18.447 18.965 18.968C18.444 19.489 17.8254 19.902 17.1445 20.1834C16.4637 20.4649 15.7339 20.6092 14.9972 20.6082ZM20.8352 10.4722C20.1102 10.4722 19.5252 9.88719 19.5252 9.16219C19.5252 8.43819 20.1102 7.85219 20.8352 7.85219C21.0949 7.85095 21.3491 7.92706 21.5654 8.07082C21.7817 8.21459 21.9504 8.41949 22.0498 8.65944C22.1492 8.89938 22.175 9.16349 22.1237 9.41811C22.0725 9.67274 21.9467 9.90635 21.7622 10.0892C21.6404 10.2108 21.4959 10.3072 21.3368 10.3729C21.1777 10.4386 21.0073 10.4724 20.8352 10.4722Z" fill="white"/>
</g>
</svg>
