<svg width="193" height="53" viewBox="0 0 193 53" fill="none" xmlns="http://www.w3.org/2000/svg">
<rect width="193" height="53" rx="5.71429" fill="black" fill-opacity="0.6"/>
<rect x="0.5" y="0.5" width="192" height="52" rx="5.21429" stroke="white" stroke-opacity="0.2"/>
<path d="M17.0391 37.8061V14.195C17.0391 13.3753 17.5214 12.6534 18.2316 12.3201L32.2153 26.0001L18.2316 39.6801C17.874 39.5073 17.5728 39.2402 17.3621 38.9089C17.1514 38.5776 17.0395 38.1953 17.0391 37.8051M36.6447 30.3344L21.3684 38.9728L33.4217 27.1813L36.6447 30.3344ZM41.4011 24.348C41.8834 24.723 42.2391 25.3063 42.2391 26.0011C42.2391 26.6959 41.9271 27.2511 41.4298 27.6396L38.1791 29.4729L34.6302 26.0011L38.1791 22.5293L41.4021 24.3491M21.3695 13.0294L36.6458 21.6678L33.4227 24.8209L21.3695 13.0294Z" fill="white"/>
<path d="M66.852 18.212V15.872H68.088V18.968C67.236 19.616 65.976 20.06 64.824 20.06C62.34 20.06 60.408 18.2 60.408 15.8C60.408 13.4 62.364 11.564 64.908 11.564C66.108 11.564 67.308 12.02 68.136 12.74L67.332 13.784C66.684 13.184 65.784 12.824 64.908 12.824C63.192 12.824 61.848 14.132 61.848 15.8C61.848 17.48 63.204 18.788 64.92 18.788C65.544 18.788 66.252 18.572 66.852 18.212ZM70.0923 11.6H76.0923V12.872H71.5083V15.152H75.6123V16.412H71.5083V18.728H76.2363V20H70.0923V11.6ZM76.9713 11.6H83.7033V12.872H81.0393V20H79.6233V12.872H76.9713V11.6ZM88.5142 11.6H89.9302V20H88.5142V11.6ZM91.1393 11.6H97.8713V12.872H95.2073V20H93.7913V12.872H91.1393V11.6ZM106.438 11.564C108.946 11.564 110.89 13.4 110.89 15.8C110.89 18.2 108.946 20.06 106.438 20.06C103.93 20.06 101.986 18.2 101.986 15.8C101.986 13.388 103.93 11.564 106.438 11.564ZM106.45 12.836C104.794 12.836 103.426 14.132 103.426 15.8C103.426 17.468 104.806 18.788 106.45 18.788C108.094 18.788 109.438 17.468 109.438 15.8C109.438 14.132 108.094 12.836 106.45 12.836ZM112.397 11.6H113.789L118.289 17.636V11.6H119.681V20H118.289L113.813 13.976V20H112.397V11.6Z" fill="white"/>
<path d="M70.008 33.502H72.672V38.614C71.988 39.13 71.196 39.526 70.296 39.802C69.396 40.078 68.49 40.216 67.578 40.216C66.27 40.216 65.094 39.94 64.05 39.388C63.006 38.824 62.184 38.05 61.584 37.066C60.996 36.07 60.702 34.948 60.702 33.7C60.702 32.452 60.996 31.336 61.584 30.352C62.184 29.356 63.012 28.582 64.068 28.03C65.124 27.466 66.312 27.184 67.632 27.184C68.736 27.184 69.738 27.37 70.638 27.742C71.538 28.114 72.294 28.654 72.906 29.362L71.034 31.09C70.134 30.142 69.048 29.668 67.776 29.668C66.972 29.668 66.258 29.836 65.634 30.172C65.01 30.508 64.524 30.982 64.176 31.594C63.828 32.206 63.654 32.908 63.654 33.7C63.654 34.48 63.828 35.176 64.176 35.788C64.524 36.4 65.004 36.88 65.616 37.228C66.24 37.564 66.948 37.732 67.74 37.732C68.58 37.732 69.336 37.552 70.008 37.192V33.502ZM79.7907 40.144C78.7707 40.144 77.8527 39.934 77.0367 39.514C76.2327 39.082 75.6027 38.488 75.1467 37.732C74.6907 36.976 74.4627 36.118 74.4627 35.158C74.4627 34.198 74.6907 33.34 75.1467 32.584C75.6027 31.828 76.2327 31.24 77.0367 30.82C77.8527 30.388 78.7707 30.172 79.7907 30.172C80.8107 30.172 81.7227 30.388 82.5267 30.82C83.3307 31.24 83.9607 31.828 84.4167 32.584C84.8727 33.34 85.1007 34.198 85.1007 35.158C85.1007 36.118 84.8727 36.976 84.4167 37.732C83.9607 38.488 83.3307 39.082 82.5267 39.514C81.7227 39.934 80.8107 40.144 79.7907 40.144ZM79.7907 37.84C80.5107 37.84 81.0987 37.6 81.5547 37.12C82.0227 36.628 82.2567 35.974 82.2567 35.158C82.2567 34.342 82.0227 33.694 81.5547 33.214C81.0987 32.722 80.5107 32.476 79.7907 32.476C79.0707 32.476 78.4767 32.722 78.0087 33.214C77.5407 33.694 77.3067 34.342 77.3067 35.158C77.3067 35.974 77.5407 36.628 78.0087 37.12C78.4767 37.6 79.0707 37.84 79.7907 37.84ZM91.5856 40.144C90.5656 40.144 89.6476 39.934 88.8316 39.514C88.0276 39.082 87.3976 38.488 86.9416 37.732C86.4856 36.976 86.2576 36.118 86.2576 35.158C86.2576 34.198 86.4856 33.34 86.9416 32.584C87.3976 31.828 88.0276 31.24 88.8316 30.82C89.6476 30.388 90.5656 30.172 91.5856 30.172C92.6056 30.172 93.5176 30.388 94.3216 30.82C95.1256 31.24 95.7556 31.828 96.2116 32.584C96.6676 33.34 96.8956 34.198 96.8956 35.158C96.8956 36.118 96.6676 36.976 96.2116 37.732C95.7556 38.488 95.1256 39.082 94.3216 39.514C93.5176 39.934 92.6056 40.144 91.5856 40.144ZM91.5856 37.84C92.3056 37.84 92.8936 37.6 93.3496 37.12C93.8176 36.628 94.0516 35.974 94.0516 35.158C94.0516 34.342 93.8176 33.694 93.3496 33.214C92.8936 32.722 92.3056 32.476 91.5856 32.476C90.8656 32.476 90.2716 32.722 89.8036 33.214C89.3356 33.694 89.1016 34.342 89.1016 35.158C89.1016 35.974 89.3356 36.628 89.8036 37.12C90.2716 37.6 90.8656 37.84 91.5856 37.84ZM108.763 30.316V38.38C108.763 40.156 108.301 41.476 107.377 42.34C106.453 43.204 105.103 43.636 103.327 43.636C102.391 43.636 101.503 43.522 100.663 43.294C99.8226 43.066 99.1266 42.736 98.5746 42.304L99.6906 40.288C100.099 40.624 100.615 40.888 101.239 41.08C101.863 41.284 102.487 41.386 103.111 41.386C104.083 41.386 104.797 41.164 105.253 40.72C105.721 40.288 105.955 39.628 105.955 38.74V38.326C105.223 39.13 104.203 39.532 102.895 39.532C102.007 39.532 101.191 39.34 100.447 38.956C99.7146 38.56 99.1326 38.008 98.7006 37.3C98.2686 36.592 98.0526 35.776 98.0526 34.852C98.0526 33.928 98.2686 33.112 98.7006 32.404C99.1326 31.696 99.7146 31.15 100.447 30.766C101.191 30.37 102.007 30.172 102.895 30.172C104.299 30.172 105.367 30.634 106.099 31.558V30.316H108.763ZM103.453 37.228C104.197 37.228 104.803 37.012 105.271 36.58C105.751 36.136 105.991 35.56 105.991 34.852C105.991 34.144 105.751 33.574 105.271 33.142C104.803 32.698 104.197 32.476 103.453 32.476C102.709 32.476 102.097 32.698 101.617 33.142C101.137 33.574 100.897 34.144 100.897 34.852C100.897 35.56 101.137 36.136 101.617 36.58C102.097 37.012 102.709 37.228 103.453 37.228ZM111.376 26.644H114.184V40H111.376V26.644ZM126.276 35.194C126.276 35.23 126.258 35.482 126.222 35.95H118.896C119.028 36.55 119.34 37.024 119.832 37.372C120.324 37.72 120.936 37.894 121.668 37.894C122.172 37.894 122.616 37.822 123 37.678C123.396 37.522 123.762 37.282 124.098 36.958L125.592 38.578C124.68 39.622 123.348 40.144 121.596 40.144C120.504 40.144 119.538 39.934 118.698 39.514C117.858 39.082 117.21 38.488 116.754 37.732C116.298 36.976 116.07 36.118 116.07 35.158C116.07 34.21 116.292 33.358 116.736 32.602C117.192 31.834 117.81 31.24 118.59 30.82C119.382 30.388 120.264 30.172 121.236 30.172C122.184 30.172 123.042 30.376 123.81 30.784C124.578 31.192 125.178 31.78 125.61 32.548C126.054 33.304 126.276 34.186 126.276 35.194ZM121.254 32.296C120.618 32.296 120.084 32.476 119.652 32.836C119.22 33.196 118.956 33.688 118.86 34.312H123.63C123.534 33.7 123.27 33.214 122.838 32.854C122.406 32.482 121.878 32.296 121.254 32.296ZM138.895 27.4C140.011 27.4 140.977 27.586 141.793 27.958C142.621 28.33 143.257 28.858 143.701 29.542C144.145 30.226 144.367 31.036 144.367 31.972C144.367 32.896 144.145 33.706 143.701 34.402C143.257 35.086 142.621 35.614 141.793 35.986C140.977 36.346 140.011 36.526 138.895 36.526H136.357V40H133.441V27.4H138.895ZM138.733 34.15C139.609 34.15 140.275 33.964 140.731 33.592C141.187 33.208 141.415 32.668 141.415 31.972C141.415 31.264 141.187 30.724 140.731 30.352C140.275 29.968 139.609 29.776 138.733 29.776H136.357V34.15H138.733ZM146.427 26.644H149.235V40H146.427V26.644ZM155.747 30.172C157.247 30.172 158.399 30.532 159.203 31.252C160.007 31.96 160.409 33.034 160.409 34.474V40H157.781V38.794C157.253 39.694 156.269 40.144 154.829 40.144C154.085 40.144 153.437 40.018 152.885 39.766C152.345 39.514 151.931 39.166 151.643 38.722C151.355 38.278 151.211 37.774 151.211 37.21C151.211 36.31 151.547 35.602 152.219 35.086C152.903 34.57 153.953 34.312 155.369 34.312H157.601C157.601 33.7 157.415 33.232 157.043 32.908C156.671 32.572 156.113 32.404 155.369 32.404C154.853 32.404 154.343 32.488 153.839 32.656C153.347 32.812 152.927 33.028 152.579 33.304L151.571 31.342C152.099 30.97 152.729 30.682 153.461 30.478C154.205 30.274 154.967 30.172 155.747 30.172ZM155.531 38.254C156.011 38.254 156.437 38.146 156.809 37.93C157.181 37.702 157.445 37.372 157.601 36.94V35.95H155.675C154.523 35.95 153.947 36.328 153.947 37.084C153.947 37.444 154.085 37.732 154.361 37.948C154.649 38.152 155.039 38.254 155.531 38.254ZM172.387 30.316L168.013 40.594C167.569 41.71 167.017 42.496 166.357 42.952C165.709 43.408 164.923 43.636 163.999 43.636C163.495 43.636 162.997 43.558 162.505 43.402C162.013 43.246 161.611 43.03 161.299 42.754L162.325 40.756C162.541 40.948 162.787 41.098 163.063 41.206C163.351 41.314 163.633 41.368 163.909 41.368C164.293 41.368 164.605 41.272 164.845 41.08C165.085 40.9 165.301 40.594 165.493 40.162L165.529 40.072L161.335 30.316H164.233L166.951 36.886L169.687 30.316H172.387Z" fill="white"/>
</svg>
