<svg width="107" height="30" viewBox="0 0 107 30" fill="none" xmlns="http://www.w3.org/2000/svg">
<mask id="mask0_159_1767" style="mask-type:alpha" maskUnits="userSpaceOnUse" x="0" y="0" width="107" height="30">
<rect width="107" height="30" fill="#D9D9D9"/>
</mask>
<g mask="url(#mask0_159_1767)">
<path d="M86.3849 25.5916C84.5897 25.5526 82.8811 24.8073 81.6252 23.5154C80.3693 22.2234 79.666 20.4876 79.666 18.68C79.666 16.8723 80.3693 15.1365 81.6252 13.8445C82.8811 12.5526 84.5897 11.8073 86.3849 11.7683H91.3657V4.11475H102.999V25.6045H86.3753" stroke="#60A9FF" stroke-width="2.66198" stroke-linecap="round" stroke-linejoin="round"/>
<path d="M16.7468 10.0625C16.7468 9.15383 16.569 8.25402 16.2236 7.41448C15.8782 6.57494 15.3719 5.81212 14.7336 5.16956C14.0954 4.52701 13.3377 4.0173 12.5037 3.66955C11.6698 3.32181 10.776 3.14282 9.8734 3.14282C8.97078 3.14282 8.07699 3.32181 7.24307 3.66955C6.40915 4.0173 5.65143 4.52701 5.01317 5.16956C4.37492 5.81212 3.86863 6.57494 3.52321 7.41448C3.17779 8.25402 3 9.15383 3 10.0625" stroke="#D355FF" stroke-width="2.66198" stroke-linecap="round" stroke-linejoin="round"/>
<path d="M30.4872 10.0625V26.7857H3V10.0625" stroke="#D355FF" stroke-width="2.66198" stroke-linejoin="round"/>
<path d="M30.4941 10.0624C30.5139 9.14224 30.3509 8.22733 30.0147 7.37139C29.6786 6.51544 29.176 5.73569 28.5365 5.07788C27.8971 4.42006 27.1336 3.89742 26.2908 3.54061C25.448 3.1838 24.543 3 23.6287 3C22.7145 3 21.8094 3.1838 20.9667 3.54061C20.1239 3.89742 19.3604 4.42006 18.7209 5.07788C18.0815 5.73569 17.5789 6.51544 17.2427 7.37139C16.9066 8.22733 16.7436 9.14224 16.7633 10.0624" stroke="#D355FF" stroke-width="2.66198" stroke-linecap="round" stroke-linejoin="round"/>
<path d="M16.7305 20.1267V26.7857" stroke="#D355FF" stroke-width="2.66198" stroke-linecap="round" stroke-linejoin="round"/>
<path d="M55.0039 15.4888C55.009 18.425 56.0542 21.2631 57.9516 23.493C59.849 25.7228 62.4742 27.1983 65.3553 27.6541C68.2365 28.11 71.1847 27.5163 73.67 25.9798C76.1554 24.4433 78.0149 22.0648 78.9143 19.2717C79.8137 16.4787 79.6941 13.4542 78.577 10.742C77.4598 8.0297 75.4184 5.80753 72.8196 4.47483C70.2208 3.14212 67.2351 2.78629 64.399 3.47128C61.563 4.15627 59.0626 5.83716 57.3473 8.21184" stroke="#FFEA31" stroke-width="2.66198" stroke-linecap="round" stroke-linejoin="round"/>
<path d="M55.0048 15.4886C55.0017 12.5516 53.9583 9.71204 52.0622 7.47997C50.1662 5.2479 47.5416 3.76965 44.6601 3.31078C41.7786 2.85192 38.829 3.44251 36.3412 4.97646C33.8534 6.51041 31.9905 8.88719 31.0871 11.6798C30.1836 14.4724 30.299 17.4978 31.4123 20.2125C32.5257 22.9272 34.5641 25.1532 37.1613 26.4907C39.7586 27.8282 42.7444 28.1895 45.5825 27.5097C48.4206 26.8299 50.9249 25.1535 52.6455 22.7817" stroke="#FFEA31" stroke-width="2.66198" stroke-linecap="round" stroke-linejoin="round"/>
<path d="M46.9234 17.0505C46.6788 17.051 46.4365 17.0032 46.2104 16.9099C45.9843 16.8165 45.7789 16.6794 45.6059 16.5064C45.4329 16.3335 45.2958 16.128 45.2024 15.9019C45.1091 15.6758 45.0613 15.4335 45.0618 15.1889C45.0353 14.5313 44.7555 13.9095 44.2809 13.4536C43.8062 12.9978 43.1737 12.7432 42.5156 12.7432C41.8575 12.7432 41.2249 12.9978 40.7503 13.4536C40.2757 13.9095 39.9958 14.5313 39.9693 15.1889C39.9693 15.6826 39.7732 16.1561 39.4241 16.5052C39.0749 16.8543 38.6014 17.0505 38.1077 17.0505C37.614 17.0505 37.1405 16.8543 36.7913 16.5052C36.4422 16.1561 36.2461 15.6826 36.2461 15.1889C36.2881 13.554 36.9671 12.0002 38.1382 10.8587C39.3094 9.7172 40.8801 9.07837 42.5156 9.07837C44.151 9.07837 45.7217 9.7172 46.8929 10.8587C48.0641 12.0002 48.7431 13.554 48.7851 15.1889C48.7851 15.6826 48.5889 16.1561 48.2398 16.5052C47.8907 16.8543 47.4172 17.0505 46.9234 17.0505Z" fill="white"/>
<path d="M71.7438 17.0505C71.4991 17.051 71.2568 17.0032 71.0307 16.9099C70.8046 16.8165 70.5992 16.6794 70.4262 16.5064C70.2532 16.3335 70.1161 16.128 70.0227 15.9019C69.9294 15.6758 69.8816 15.4335 69.8822 15.1889C69.8556 14.5313 69.5758 13.9095 69.1012 13.4536C68.6265 12.9978 67.994 12.7432 67.3359 12.7432C66.6778 12.7432 66.0452 12.9978 65.5706 13.4536C65.096 13.9095 64.8161 14.5313 64.7896 15.1889C64.7896 15.6826 64.5935 16.1561 64.2444 16.5052C63.8953 16.8543 63.4217 17.0505 62.928 17.0505C62.4343 17.0505 61.9608 16.8543 61.6117 16.5052C61.2625 16.1561 61.0664 15.6826 61.0664 15.1889C61.1084 13.554 61.7874 12.0002 62.9585 10.8587C64.1297 9.7172 65.7005 9.07837 67.3359 9.07837C68.9713 9.07837 70.5421 9.7172 71.7132 10.8587C72.8844 12.0002 73.5634 13.554 73.6054 15.1889C73.6054 15.6826 73.4092 16.1561 73.0601 16.5052C72.711 16.8543 72.2375 17.0505 71.7438 17.0505Z" fill="white"/>
</g>
</svg>
