<svg width="193" height="53" viewBox="0 0 193 53" fill="none" xmlns="http://www.w3.org/2000/svg">
<rect width="193" height="53" rx="5.71429" fill="black" fill-opacity="0.6"/>
<rect x="0.5" y="0.5" width="192" height="52" rx="5.21429" stroke="white" stroke-opacity="0.2"/>
<path d="M41.5203 32.8522C41.4815 32.9696 40.874 35.0893 39.3815 37.2697C38.0889 39.1506 36.7517 41.0472 34.642 41.0804C32.5653 41.1176 31.9016 39.8415 29.5318 39.8415C27.1659 39.8415 26.4226 41.0472 24.4604 41.1176C22.4323 41.1998 20.8699 39.0625 19.5753 37.1914C16.9222 33.3571 14.8824 26.3267 17.619 21.6157C18.9679 19.2572 21.3881 17.7599 24.0237 17.7168C26.0111 17.6796 27.9015 19.0634 29.1087 19.0634C30.3489 19.0634 32.6352 17.39 35.0476 17.6405C36.0569 17.6836 38.8827 18.0613 40.7032 20.7016C40.5615 20.7995 37.3223 22.7097 37.3592 26.6007C37.4077 31.2962 41.4776 32.8365 41.5203 32.8522ZM33.4697 15.1235C34.5566 13.7965 35.2728 11.9723 35.0845 10.1599C33.5319 10.2206 31.6376 11.1914 30.5139 12.5125C29.5182 13.6634 28.6429 15.5169 28.8875 17.3078C30.6128 17.4115 32.3868 16.4035 33.4678 15.1235" fill="white"/>
<path d="M64.548 11.6C67.068 11.6 68.892 13.364 68.892 15.8C68.892 18.224 67.056 20 64.512 20H61.104V11.6H64.548ZM64.584 18.728C66.216 18.728 67.464 17.516 67.464 15.812C67.464 14.096 66.18 12.872 64.524 12.872H62.52V18.728H64.584ZM73.0607 13.568C75.0287 13.568 76.3847 14.876 76.3847 16.796C76.3847 18.728 75.0287 20.048 73.0607 20.048C71.0807 20.048 69.7247 18.728 69.7247 16.796C69.7247 14.876 71.0807 13.568 73.0607 13.568ZM73.0607 14.744C71.9087 14.744 71.1047 15.596 71.1047 16.82C71.1047 18.056 71.9087 18.896 73.0607 18.896C74.2007 18.896 75.0047 18.056 75.0047 16.82C75.0047 15.596 74.2007 14.744 73.0607 14.744ZM76.5823 13.616H77.9983L79.6543 18.632L81.2623 13.616H82.6903L84.3103 18.632L85.9423 13.616H87.3463L85.0183 20H83.5903L81.9703 15.272L80.3503 20H78.9343L76.5823 13.616ZM92.1036 13.568C93.5916 13.568 94.4796 14.504 94.4796 16.028V20H93.0996V16.412C93.0996 15.452 92.5236 14.864 91.5636 14.864C90.5076 14.876 89.8476 15.608 89.7516 16.604V20H88.3716V13.616H89.7516V14.84C90.2076 13.952 91.0236 13.568 92.1036 13.568ZM96.3886 11.096H97.7686V20H96.3886V11.096ZM102.604 13.568C104.572 13.568 105.928 14.876 105.928 16.796C105.928 18.728 104.572 20.048 102.604 20.048C100.624 20.048 99.2677 18.728 99.2677 16.796C99.2677 14.876 100.624 13.568 102.604 13.568ZM102.604 14.744C101.452 14.744 100.648 15.596 100.648 16.82C100.648 18.056 101.452 18.896 102.604 18.896C103.744 18.896 104.548 18.056 104.548 16.82C104.548 15.596 103.744 14.744 102.604 14.744ZM112.552 20H111.196V19.22C110.74 19.784 110.008 20.06 109.084 20.06C107.704 20.06 106.84 19.208 106.84 18.08C106.84 16.916 107.716 16.172 109.252 16.16H111.184V15.968C111.184 15.164 110.668 14.684 109.66 14.684C109.048 14.684 108.412 14.9 107.776 15.332L107.212 14.372C108.1 13.844 108.748 13.568 109.96 13.568C111.604 13.568 112.528 14.408 112.54 15.812L112.552 20ZM109.372 18.968C110.356 18.968 111.112 18.452 111.184 17.756V17.168H109.456C108.556 17.168 108.136 17.408 108.136 18.02C108.136 18.596 108.604 18.968 109.372 18.968ZM119.103 11.096H120.483V20H119.103V18.908C118.647 19.652 117.879 20.06 116.859 20.06C115.023 20.06 113.799 18.728 113.799 16.784C113.799 14.864 115.035 13.556 116.835 13.556C117.867 13.556 118.635 13.976 119.103 14.72V11.096ZM117.147 18.908C118.299 18.908 119.103 18.044 119.103 16.832C119.103 15.596 118.299 14.732 117.147 14.732C115.995 14.732 115.191 15.608 115.179 16.832C115.191 18.044 115.983 18.908 117.147 18.908ZM128.912 13.568C130.88 13.568 132.236 14.876 132.236 16.796C132.236 18.728 130.88 20.048 128.912 20.048C126.932 20.048 125.576 18.728 125.576 16.796C125.576 14.876 126.932 13.568 128.912 13.568ZM128.912 14.744C127.76 14.744 126.956 15.596 126.956 16.82C126.956 18.056 127.76 18.896 128.912 18.896C130.052 18.896 130.856 18.056 130.856 16.82C130.856 15.596 130.052 14.744 128.912 14.744ZM137.408 13.568C138.896 13.568 139.784 14.504 139.784 16.028V20H138.404V16.412C138.404 15.452 137.828 14.864 136.868 14.864C135.812 14.876 135.152 15.608 135.056 16.604V20H133.676V13.616H135.056V14.84C135.512 13.952 136.328 13.568 137.408 13.568ZM148.495 18.536L148.843 19.592C148.339 19.892 147.811 20.06 147.271 20.06C146.311 20.06 145.483 19.508 145.483 18.2V14.888H144.583V13.856H145.483V12.104H146.851V13.856H148.735V14.888H146.851V17.948C146.851 18.608 147.103 18.812 147.535 18.812C147.823 18.812 148.123 18.716 148.495 18.536ZM153.922 13.568C155.41 13.568 156.298 14.504 156.298 16.028V20H154.918V16.412C154.918 15.452 154.342 14.864 153.382 14.864C152.242 14.876 151.558 15.728 151.558 16.856V20H150.178V11.096H151.558V14.864C152.014 13.964 152.83 13.568 153.922 13.568ZM160.773 13.568C163.017 13.568 163.929 15.032 163.761 17.336H158.937C159.153 18.32 159.909 18.932 160.917 18.932C161.613 18.932 162.249 18.668 162.717 18.188L163.449 18.968C162.825 19.652 161.913 20.048 160.809 20.048C158.841 20.048 157.545 18.74 157.545 16.82C157.545 14.888 158.877 13.58 160.773 13.568ZM158.913 16.328H162.561C162.513 15.296 161.829 14.672 160.785 14.672C159.777 14.672 159.057 15.308 158.913 16.328Z" fill="white"/>
<path d="M69.792 37.3H63.942L62.826 40H59.838L65.454 27.4H68.334L73.968 40H70.908L69.792 37.3ZM68.874 35.086L66.876 30.262L64.878 35.086H68.874ZM80.8013 30.172C81.7013 30.172 82.5173 30.382 83.2493 30.802C83.9933 31.21 84.5753 31.792 84.9953 32.548C85.4153 33.292 85.6253 34.162 85.6253 35.158C85.6253 36.154 85.4153 37.03 84.9953 37.786C84.5753 38.53 83.9933 39.112 83.2493 39.532C82.5173 39.94 81.7013 40.144 80.8013 40.144C79.5653 40.144 78.5933 39.754 77.8853 38.974V43.492H75.0773V30.316H77.7593V31.432C78.4553 30.592 79.4693 30.172 80.8013 30.172ZM80.3153 37.84C81.0353 37.84 81.6233 37.6 82.0793 37.12C82.5473 36.628 82.7812 35.974 82.7812 35.158C82.7812 34.342 82.5473 33.694 82.0793 33.214C81.6233 32.722 81.0353 32.476 80.3153 32.476C79.5953 32.476 79.0013 32.722 78.5332 33.214C78.0773 33.694 77.8493 34.342 77.8493 35.158C77.8493 35.974 78.0773 36.628 78.5332 37.12C79.0013 37.6 79.5953 37.84 80.3153 37.84ZM93.229 30.172C94.129 30.172 94.945 30.382 95.677 30.802C96.421 31.21 97.003 31.792 97.423 32.548C97.843 33.292 98.053 34.162 98.053 35.158C98.053 36.154 97.843 37.03 97.423 37.786C97.003 38.53 96.421 39.112 95.677 39.532C94.945 39.94 94.129 40.144 93.229 40.144C91.993 40.144 91.021 39.754 90.313 38.974V43.492H87.505V30.316H90.187V31.432C90.883 30.592 91.897 30.172 93.229 30.172ZM92.743 37.84C93.463 37.84 94.051 37.6 94.507 37.12C94.975 36.628 95.209 35.974 95.209 35.158C95.209 34.342 94.975 33.694 94.507 33.214C94.051 32.722 93.463 32.476 92.743 32.476C92.023 32.476 91.429 32.722 90.961 33.214C90.505 33.694 90.277 34.342 90.277 35.158C90.277 35.974 90.505 36.628 90.961 37.12C91.429 37.6 92.023 37.84 92.743 37.84ZM109.368 40.216C108.372 40.216 107.406 40.084 106.47 39.82C105.546 39.544 104.802 39.19 104.238 38.758L105.228 36.562C105.768 36.958 106.41 37.276 107.154 37.516C107.898 37.756 108.642 37.876 109.386 37.876C110.214 37.876 110.826 37.756 111.222 37.516C111.618 37.264 111.816 36.934 111.816 36.526C111.816 36.226 111.696 35.98 111.456 35.788C111.228 35.584 110.928 35.422 110.556 35.302C110.196 35.182 109.704 35.05 109.08 34.906C108.12 34.678 107.334 34.45 106.722 34.222C106.11 33.994 105.582 33.628 105.138 33.124C104.706 32.62 104.49 31.948 104.49 31.108C104.49 30.376 104.688 29.716 105.084 29.128C105.48 28.528 106.074 28.054 106.866 27.706C107.67 27.358 108.648 27.184 109.8 27.184C110.604 27.184 111.39 27.28 112.158 27.472C112.926 27.664 113.598 27.94 114.174 28.3L113.274 30.514C112.11 29.854 110.946 29.524 109.782 29.524C108.966 29.524 108.36 29.656 107.964 29.92C107.58 30.184 107.388 30.532 107.388 30.964C107.388 31.396 107.61 31.72 108.054 31.936C108.51 32.14 109.2 32.344 110.124 32.548C111.084 32.776 111.87 33.004 112.482 33.232C113.094 33.46 113.616 33.82 114.048 34.312C114.492 34.804 114.714 35.47 114.714 36.31C114.714 37.03 114.51 37.69 114.102 38.29C113.706 38.878 113.106 39.346 112.302 39.694C111.498 40.042 110.52 40.216 109.368 40.216ZM122.755 39.532C122.479 39.736 122.137 39.892 121.729 40C121.333 40.096 120.913 40.144 120.469 40.144C119.317 40.144 118.423 39.85 117.787 39.262C117.163 38.674 116.851 37.81 116.851 36.67V32.692H115.357V30.532H116.851V28.174H119.659V30.532H122.071V32.692H119.659V36.634C119.659 37.042 119.761 37.36 119.965 37.588C120.181 37.804 120.481 37.912 120.865 37.912C121.309 37.912 121.687 37.792 121.999 37.552L122.755 39.532ZM128.64 40.144C127.62 40.144 126.702 39.934 125.886 39.514C125.082 39.082 124.452 38.488 123.996 37.732C123.54 36.976 123.312 36.118 123.312 35.158C123.312 34.198 123.54 33.34 123.996 32.584C124.452 31.828 125.082 31.24 125.886 30.82C126.702 30.388 127.62 30.172 128.64 30.172C129.66 30.172 130.572 30.388 131.376 30.82C132.18 31.24 132.81 31.828 133.266 32.584C133.722 33.34 133.95 34.198 133.95 35.158C133.95 36.118 133.722 36.976 133.266 37.732C132.81 38.488 132.18 39.082 131.376 39.514C130.572 39.934 129.66 40.144 128.64 40.144ZM128.64 37.84C129.36 37.84 129.948 37.6 130.404 37.12C130.872 36.628 131.106 35.974 131.106 35.158C131.106 34.342 130.872 33.694 130.404 33.214C129.948 32.722 129.36 32.476 128.64 32.476C127.92 32.476 127.326 32.722 126.858 33.214C126.39 33.694 126.156 34.342 126.156 35.158C126.156 35.974 126.39 36.628 126.858 37.12C127.326 37.6 127.92 37.84 128.64 37.84ZM138.509 31.594C138.845 31.126 139.295 30.772 139.859 30.532C140.435 30.292 141.095 30.172 141.839 30.172V32.764C141.527 32.74 141.317 32.728 141.209 32.728C140.405 32.728 139.775 32.956 139.319 33.412C138.863 33.856 138.635 34.528 138.635 35.428V40H135.827V30.316H138.509V31.594ZM152.907 35.194C152.907 35.23 152.889 35.482 152.853 35.95H145.527C145.659 36.55 145.971 37.024 146.463 37.372C146.955 37.72 147.567 37.894 148.299 37.894C148.803 37.894 149.247 37.822 149.631 37.678C150.027 37.522 150.393 37.282 150.729 36.958L152.223 38.578C151.311 39.622 149.979 40.144 148.227 40.144C147.135 40.144 146.169 39.934 145.329 39.514C144.489 39.082 143.841 38.488 143.385 37.732C142.929 36.976 142.701 36.118 142.701 35.158C142.701 34.21 142.923 33.358 143.367 32.602C143.823 31.834 144.441 31.24 145.221 30.82C146.013 30.388 146.895 30.172 147.867 30.172C148.815 30.172 149.673 30.376 150.441 30.784C151.209 31.192 151.809 31.78 152.241 32.548C152.685 33.304 152.907 34.186 152.907 35.194ZM147.885 32.296C147.249 32.296 146.715 32.476 146.283 32.836C145.851 33.196 145.587 33.688 145.491 34.312H150.261C150.165 33.7 149.901 33.214 149.469 32.854C149.037 32.482 148.509 32.296 147.885 32.296Z" fill="white"/>
</svg>
